<?xml version="1.0" encoding="utf-8"?>
<!-- Generator: Adobe Illustrator 24.0.2, SVG Export Plug-In . SVG Version: 6.00 Build 0)  -->
<svg version="1.1" id="Vrstva_1" xmlns="http://www.w3.org/2000/svg" xmlns:xlink="http://www.w3.org/1999/xlink" x="0px" y="0px"
	 viewBox="0 0 1920 1080" style="enable-background:new 0 0 1920 1080;" xml:space="preserve">
<style type="text/css">
	.st0{fill:url(#SVGID_1_);}
</style>
<linearGradient id="SVGID_1_" gradientUnits="userSpaceOnUse" x1="959.5" y1="0.5" x2="959.5" y2="1080">
	<stop  offset="0" style="stop-color:#E5C5FF"/>
	<stop  offset="1" style="stop-color:#A9EFFF"/>
</linearGradient>
<path class="st0" d="M1919.5,360.58V1080c-275.62-68.42-499.74-78.99-657.5-75c-269.19,6.81-345.32,56.03-613,30
	c-98.64-9.59-195.8-26.73-344-15c-130.74,10.35-236.29,38.02-305.5,60c0.2-65,0.37-130,0.5-195C0.59,590.16,0.42,295.33-0.5,0.5
	c323,0,646,0,969,0c0,0,65,156.24,484,156.24S1919.5,360.58,1919.5,360.58z"/>
</svg>
